<?xml version="1.0" encoding="UTF-8" standalone="no"?> <!-- Created with Vectornator for iOS (http://vectornator.io/) --><!DOCTYPE svg PUBLIC "-//W3C//DTD SVG 1.1//EN" "http://www.w3.org/Graphics/SVG/1.1/DTD/svg11.dtd">
<svg height="100%" style="fill-rule:evenodd;clip-rule:evenodd;stroke-linecap:round;stroke-linejoin:round;" xmlns:xlink="http://www.w3.org/1999/xlink" xmlns="http://www.w3.org/2000/svg" xml:space="preserve" width="100%" xmlns:vectornator="http://vectornator.io" version="1.1" viewBox="0 0 966.822 975.733">
<metadata>
<vectornator:setting key="DimensionsVisible" value="1"/>
<vectornator:setting key="PencilOnly" value="0"/>
<vectornator:setting key="SnapToPoints" value="0"/>
<vectornator:setting key="OutlineMode" value="0"/>
<vectornator:setting key="CMYKEnabledKey" value="0"/>
<vectornator:setting key="RulersVisible" value="1"/>
<vectornator:setting key="SnapToEdges" value="0"/>
<vectornator:setting key="GuidesVisible" value="1"/>
<vectornator:setting key="DisplayWhiteBackground" value="0"/>
<vectornator:setting key="doHistoryDisabled" value="0"/>
<vectornator:setting key="SnapToGuides" value="1"/>
<vectornator:setting key="TimeLapseWatermarkDisabled" value="0"/>
<vectornator:setting key="Units" value="Pixels"/>
<vectornator:setting key="DynamicGuides" value="0"/>
<vectornator:setting key="IsolateActiveLayer" value="0"/>
<vectornator:setting key="SnapToGrid" value="0"/>
</metadata>
<defs/>
<g id="Capa 1" vectornator:layerName="Capa 1">
<path d="M301.755+712.216C292.385+726.699+248.017+720.303+230.899+720.303C157.793+720.303+64.6705+619.791+96.7774+546.131C101.049+536.331+112.535+521.061+123.349+517.517C147.539+509.589+210.053+510.706+229.633+529.958C267.777+567.462+326.205+632.851+310.612+694.177C308.823+701.214+305.314+706.715+301.755+712.216Z" opacity="1" fill="#272330"/>
<path d="M342.755+438.421C327.22+436.156+313.35+430.124+299.102+424.736C256.493+408.623+221.029+393.066+197.879+351.335C178.152+315.776+192.171+250.364+228.246+230.659C255.236+215.916+280.324+236.043+300.367+251.808C341.602+284.243+377.107+331.739+387.673+383.681C393.483+412.246+374.664+443.073+342.755+438.421Z" opacity="1" fill="#272330"/>
<path d="M499.304+76.5525C497.411+77.483+486.174+79.4233+482.855+80.9068C474.647+84.575+474.723+84.6192+467.671+90.8595C449.456+106.979+442.366+128.073+442.366+151.82C442.366+173.159+440.6+195.649+443.631+216.512C450.051+260.702+493.139+333.637+547.385+324.747C575.494+320.141+585.904+291.808+592.936+268.764C606.912+222.956+619.78+157.064+580.283+118.229C560.679+98.9545+533.197+59.8902+499.304+76.5525Z" opacity="1" fill="#272330"/>
<path d="M766.831+355.778C756+356.013+742.704+306.145+739.627+296.062C724.359+246.021+756.715+137.978+830.729+169.166C884.392+191.779+888.986+312.994+857.3+354.534C845.596+369.878+815.533+385.634+795.3+380.66C789.382+379.205+777.777+374.69+773.79+369.463C771.437+366.378+767.101+355.773+766.831+355.778Z" opacity="1" fill="#272330"/>
<path d="M455.575+478.167C454.041+473.038+425.471+516.067+423.945+518.469C405.527+547.484+393.562+581.076+386.558+614.765C366.138+712.99+357.753+875.231+454.528+934.983C487.968+955.63+565.787+971.018+601.582+950.877C616.923+942.245+620.152+928.291+627.547+913.762C644.764+879.934+651.133+840.95+662.401+804.571C670.527+778.334+672.855+750.694+696.068+733.457C715.445+719.068+742.503+719.637+765.162+718.836C769.788+718.673+782.062+724.313+784.878+722.794C794.06+717.841+804.159+721.21+815.32+720.57C856.852+718.186+903.671+714.782+924.889+673.091C928.273+666.442+934.154+661.146+936.29+653.67C941.522+635.356+939.419+616.064+939.257+597.201C938.381+495.128+857.465+454.158+772.335+439.632C749.118+435.67+727.945+421.668+704.156+419.689C683.83+417.998+662.641+416.76+642.694+413.356C615.405+408.699+587.089+418.798+560.714+422.514C553.411+423.542+546.311+429.065+538.972+429.487C528.132+430.109+512.5+434.417+503.153+440.289C492.125+447.218+478.65+452.029+469.119+461.486C465.594+464.983+461.83+467.44+458.91+471.614C457.803+473.197+455.602+478.256+455.575+478.167Z" opacity="1" fill="#272330"/>
</g>
</svg>
