<?xml version="1.0" encoding="UTF-8" standalone="no"?> <!-- Created with Vectornator for iOS (http://vectornator.io/) --><!DOCTYPE svg PUBLIC "-//W3C//DTD SVG 1.1//EN" "http://www.w3.org/Graphics/SVG/1.1/DTD/svg11.dtd">
<svg height="100%" style="fill-rule:evenodd;clip-rule:evenodd;stroke-linecap:round;stroke-linejoin:round;" xmlns:xlink="http://www.w3.org/1999/xlink" xmlns="http://www.w3.org/2000/svg" xml:space="preserve" width="100%" xmlns:vectornator="http://vectornator.io" version="1.1" viewBox="0 0 966.822 975.733">
<metadata>
<vectornator:setting key="DimensionsVisible" value="1"/>
<vectornator:setting key="PencilOnly" value="0"/>
<vectornator:setting key="SnapToPoints" value="0"/>
<vectornator:setting key="OutlineMode" value="0"/>
<vectornator:setting key="CMYKEnabledKey" value="0"/>
<vectornator:setting key="RulersVisible" value="1"/>
<vectornator:setting key="SnapToEdges" value="0"/>
<vectornator:setting key="GuidesVisible" value="1"/>
<vectornator:setting key="DisplayWhiteBackground" value="0"/>
<vectornator:setting key="doHistoryDisabled" value="0"/>
<vectornator:setting key="SnapToGuides" value="1"/>
<vectornator:setting key="TimeLapseWatermarkDisabled" value="0"/>
<vectornator:setting key="Units" value="Pixels"/>
<vectornator:setting key="DynamicGuides" value="0"/>
<vectornator:setting key="IsolateActiveLayer" value="0"/>
<vectornator:setting key="SnapToGrid" value="0"/>
</metadata>
<defs/>
<g id="Capa 1" vectornator:layerName="Capa 1">
<path d="M717.726+696.622C726.844+711.652+770.019+705.014+786.678+705.014C857.818+705.014+948.436+600.703+917.193+524.258C913.036+514.087+901.859+498.24+891.336+494.562C867.796+486.334+806.963+487.494+787.909+507.473C750.791+546.395+693.934+614.256+709.108+677.901C710.849+685.203+714.263+690.913+717.726+696.622Z" opacity="1" fill="#272330"/>
<path d="M677.829+412.476C692.947+410.125+706.443+403.865+720.308+398.274C761.771+381.551+796.282+365.406+818.81+322.098C838.006+285.194+824.364+217.31+789.259+196.859C762.995+181.559+738.581+202.446+719.077+218.808C678.951+252.469+644.4+301.761+634.119+355.667C628.465+385.311+646.778+417.304+677.829+412.476Z" opacity="1" fill="#272330"/>
<path d="M525.49+36.9268C527.331+37.8925+538.266+39.9061+541.496+41.4457C549.483+45.2526+549.409+45.2984+556.271+51.7747C573.997+68.5036+580.897+90.395+580.897+115.039C580.897+137.186+582.615+160.526+579.665+182.178C573.418+228.038+531.489+303.73+478.701+294.505C451.348+289.724+441.217+260.32+434.375+236.404C420.775+188.865+408.253+120.483+446.688+80.1793C465.764+60.1757+492.508+19.6346+525.49+36.9268Z" opacity="1" fill="#272330"/>
<path d="M265.156+326.709C275.696+326.953+288.634+275.199+291.628+264.735C306.486+212.803+274.999+100.674+202.976+133.041C150.756+156.509+146.285+282.307+177.12+325.418C188.509+341.342+217.763+357.693+237.452+352.531C243.212+351.022+254.504+346.335+258.384+340.911C260.674+337.71+264.893+326.703+265.156+326.709Z" opacity="1" fill="#272330"/>
<path d="M568.042+453.725C569.535+448.402+597.338+493.057+598.822+495.551C616.745+525.663+628.388+560.524+635.204+595.487C655.075+697.425+663.235+865.799+569.061+927.811C536.521+949.238+460.794+965.208+425.961+944.305C411.033+935.347+407.891+920.866+400.695+905.788C383.941+870.68+377.743+830.222+366.778+792.468C358.87+765.24+356.605+736.554+334.017+718.666C315.161+703.733+288.83+704.323+266.78+703.492C262.279+703.323+250.334+709.176+247.594+707.6C238.659+702.46+228.832+705.956+217.971+705.292C177.556+702.818+131.996+699.284+111.348+656.018C108.055+649.117+102.332+643.621+100.254+635.863C95.1619+616.856+97.2086+596.834+97.3661+577.258C98.2181+471.327+176.959+428.808+259.8+413.732C282.392+409.621+302.996+395.09+326.146+393.036C345.925+391.281+366.544+389.995+385.955+386.463C412.51+381.631+440.064+392.111+465.731+395.967C472.837+397.035+479.746+402.767+486.888+403.204C497.437+403.849+512.649+408.321+521.744+414.415C532.475+421.605+545.588+426.599+554.863+436.413C558.293+440.042+561.955+442.592+564.797+446.924C565.875+448.567+568.016+453.817+568.042+453.725Z" opacity="1" fill="#272330"/>
</g>
</svg>
